<svg width="64" height="64" viewBox="0 0 64 64" fill="none" xmlns="http://www.w3.org/2000/svg">
  <!-- Professional Bear Icon - Minimal Line Art -->
  <path d="M32 54 L26 48 L30 48 L30 42 C30 42 26 40 22 36 C18 32 16 26 16 20 L16 10 L20 10 L20 20 C20 24 22 28 24 31 L24 10 L28 10 L28 32 L36 32 L36 10 L40 10 L40 31 C42 28 44 24 44 20 L44 10 L48 10 L48 20 C48 26 46 32 42 36 C38 40 34 42 34 42 L34 48 L38 48 L32 54 Z" 
        fill="none" 
        stroke="#F87171" 
        stroke-width="1.5" 
        stroke-linecap="round" 
        stroke-linejoin="round"/>
  <!-- Ears -->
  <circle cx="22" cy="12" r="3" 
          fill="none" 
          stroke="#F87171" 
          stroke-width="1.5"/>
  <circle cx="42" cy="12" r="3" 
          fill="none" 
          stroke="#F87171" 
          stroke-width="1.5"/>
</svg>
