<svg width="64" height="64" viewBox="0 0 64 64" fill="none" xmlns="http://www.w3.org/2000/svg">
  <!-- Professional Bull Icon - Minimal Line Art -->
  <path d="M32 10 L38 16 L34 16 L34 22 C34 22 38 24 42 28 C46 32 48 38 48 44 L48 54 L44 54 L44 44 C44 40 42 36 40 33 L40 54 L36 54 L36 32 L28 32 L28 54 L24 54 L24 33 C22 36 20 40 20 44 L20 54 L16 54 L16 44 C16 38 18 32 22 28 C26 24 30 22 30 22 L30 16 L26 16 L32 10 Z" 
        fill="none" 
        stroke="#2DD4BF" 
        stroke-width="1.5" 
        stroke-linecap="round" 
        stroke-linejoin="round"/>
  <!-- Horns -->
  <path d="M26 16 C24 12 20 10 16 12" 
        stroke="#2DD4BF" 
        stroke-width="1.5" 
        stroke-linecap="round"/>
  <path d="M38 16 C40 12 44 10 48 12" 
        stroke="#2DD4BF" 
        stroke-width="1.5" 
        stroke-linecap="round"/>
</svg>
